<svg xmlns="http://www.w3.org/2000/svg" id="cloud-belove" width="138" height="95" viewBox="0 0 138 95" fill="none">
  <path fill-rule="evenodd" clip-rule="evenodd" d="M60.037 0C71.9871 0 82.4005 6.88049 87.8522 17.0599C91.4794 15.5586 95.4331 14.7336 99.571 14.7336C114.99 14.7336 127.85 26.1882 130.796 41.4039C135.856 46.5394 139 53.7277 139 61.6839C139 77.2905 126.902 89.9421 111.978 89.9421C107.164 89.9421 102.644 88.6257 98.7297 86.3185C93.0688 91.7117 85.542 95 77.2807 95C67.1087 95 58.0502 90.0147 52.2174 82.2531C46.6968 87.0545 39.6001 89.9421 31.8586 89.9421C14.2636 89.9421 0 75.026 0 56.6261C0 39.0146 13.0674 24.5948 29.616 23.3913C33.6548 9.83847 45.7472 0 60.037 0Z" fill="white"/>
</svg>